<?xml version="1.0" standalone="no"?>
<!DOCTYPE svg PUBLIC "-//W3C//DTD SVG 20010904//EN"
 "http://www.w3.org/TR/2001/REC-SVG-20010904/DTD/svg10.dtd">
<svg version="1.0" xmlns="http://www.w3.org/2000/svg"
 width="1200.000000pt" height="1200.000000pt" viewBox="0 0 1200.000000 1200.000000"
 preserveAspectRatio="xMidYMid meet">

<g transform="translate(0.000000,1200.000000) scale(0.100000,-0.100000)"
fill="#000000" stroke="none">
<path d="M2708 11485 c-729 -88 -1380 -487 -1788 -1095 -560 -834 -560 -1947
0 -2780 178 -264 425 -512 688 -689 701 -471 1611 -553 2389 -215 575 249
1048 722 1297 1297 481 1107 101 2402 -902 3076 -328 220 -708 359 -1111 406
-151 18 -425 18 -573 0z m424 -1163 c60 -30 120 -89 149 -150 19 -38 24 -63
24 -132 0 -73 -4 -92 -27 -136 -57 -108 -157 -169 -278 -169 -345 0 -427 477
-103 600 58 22 177 15 235 -13z m78 -1842 l0 -730 -210 0 -210 0 0 730 0 730
210 0 210 0 0 -730z"/>
<path d="M8780 11494 c-355 -41 -607 -112 -885 -249 -324 -158 -625 -397 -845
-669 -228 -282 -397 -622 -484 -976 -55 -224 -70 -352 -70 -600 0 -248 15
-376 70 -600 250 -1014 1102 -1763 2142 -1885 163 -19 412 -19 576 0 1025 120
1874 862 2131 1861 57 219 78 388 77 624 0 405 -78 739 -257 1105 -310 634
-871 1103 -1555 1300 -220 64 -383 87 -640 90 -124 2 -241 1 -260 -1z m435
-999 c218 -63 391 -208 491 -410 65 -134 79 -195 79 -360 0 -119 -4 -151 -23
-215 -82 -258 -265 -451 -510 -534 -204 -70 -412 -57 -605 38 -281 137 -448
404 -448 716 0 139 22 236 82 357 169 342 565 515 934 408z m185 -2160 c612
-85 1052 -345 1314 -776 25 -42 46 -81 46 -87 0 -15 -162 -165 -264 -245 -305
-237 -671 -419 -1007 -501 -249 -60 -540 -76 -780 -42 -509 72 -990 311 -1401
696 l-88 81 27 52 c88 177 300 411 472 525 269 177 608 281 1026 316 112 9
544 -3 655 -19z"/>
<path d="M2707 5485 c-728 -88 -1379 -487 -1787 -1095 -561 -835 -561 -1945 0
-2780 177 -263 426 -513 688 -688 712 -478 1631 -556 2417 -204 419 187 795
505 1055 892 560 835 560 1945 0 2780 -88 131 -173 234 -294 358 -407 417
-922 669 -1505 737 -152 18 -425 18 -574 0z m406 -873 c22 -8 166 -126 345
-283 l307 -268 5 260 5 261 28 24 28 24 255 0 256 0 29 -29 29 -29 0 -534 1
-533 273 -237 c178 -154 276 -246 280 -262 9 -37 -4 -62 -97 -177 -90 -112
-117 -130 -161 -107 -13 7 -399 341 -857 741 -458 400 -839 725 -845 723 -7
-3 -387 -332 -844 -731 -457 -399 -842 -730 -856 -735 -41 -16 -69 4 -158 116
-91 112 -105 141 -88 179 13 28 1770 1563 1819 1588 72 38 165 41 246 9z m596
-1246 l691 -598 0 -632 0 -633 -23 -43 c-16 -30 -37 -51 -67 -67 l-43 -23
-479 0 -478 0 0 490 0 490 -310 0 -310 0 0 -490 0 -490 -478 0 c-476 0 -478 0
-522 23 -33 16 -51 34 -68 67 l-22 45 2 634 3 635 690 598 c414 358 696 596
706 594 9 -2 327 -272 708 -600z"/>
<path d="M8680 5474 c-946 -129 -1735 -766 -2045 -1654 -98 -281 -138 -520
-138 -825 -1 -303 37 -538 128 -805 130 -378 323 -688 605 -971 393 -393 883
-635 1448 -713 131 -19 429 -21 583 -6 430 44 875 219 1227 482 536 402 881
981 983 1650 31 202 31 514 1 713 -43 274 -117 511 -237 754 -378 761 -1109
1277 -1951 1376 -160 19 -461 18 -604 -1z m-650 -1497 c55 -27 106 -98 115
-162 13 -85 -38 -180 -118 -220 -151 -75 -316 26 -317 193 0 66 25 118 81 166
68 58 149 66 239 23z m960 -6 c101 -60 136 -193 77 -294 -89 -150 -315 -140
-388 18 -89 192 128 385 311 276z m989 9 c160 -81 153 -326 -11 -395 -50 -20
-134 -19 -184 4 -126 57 -164 232 -72 337 71 81 174 102 267 54z m-1750 -480
c43 -12 77 -43 104 -95 19 -37 21 -57 21 -267 1 -215 0 -229 -19 -247 -33 -33
-77 -37 -108 -9 -26 22 -27 27 -32 163 -14 338 -32 322 -37 -30 -1 -143 -7
-266 -11 -272 -6 -10 -62 -13 -222 -13 -185 0 -214 2 -219 16 -3 9 -6 118 -6
242 0 239 -5 305 -24 299 -7 -2 -14 -66 -19 -183 -4 -98 -12 -189 -17 -202
-14 -34 -52 -48 -89 -33 -49 21 -53 47 -49 293 3 182 6 228 20 253 26 48 65
78 111 86 66 10 558 10 596 -1z m934 1 c56 -9 110 -55 129 -110 9 -25 13 -103
13 -251 0 -186 -2 -219 -17 -242 -22 -33 -60 -43 -97 -24 -34 18 -41 48 -41
186 0 134 -11 231 -24 227 -7 -2 -13 -90 -17 -271 -4 -147 -11 -272 -16 -277
-6 -6 -97 -8 -224 -7 l-214 3 -6 265 c-8 315 -6 297 -19 284 -5 -5 -12 -81
-16 -169 -7 -192 -15 -227 -50 -244 -33 -15 -89 1 -104 29 -6 11 -10 112 -10
237 0 216 0 220 26 271 27 55 63 87 104 95 43 8 533 6 583 -2z m1054 -14 c18
-9 44 -38 59 -63 27 -46 28 -50 32 -259 5 -247 0 -278 -53 -295 -27 -9 -40 -8
-64 4 -16 9 -32 24 -35 33 -2 10 -8 92 -11 183 -4 91 -9 174 -12 185 l-6 20
-8 -20 c-4 -11 -8 -128 -8 -260 -1 -132 -4 -250 -7 -262 -6 -23 -7 -23 -225
-23 -121 0 -220 1 -220 3 -1 1 -5 124 -8 274 -6 251 -10 297 -28 280 -3 -4
-10 -91 -14 -194 -8 -188 -8 -188 -35 -211 -31 -27 -65 -24 -101 10 -23 21
-23 26 -23 246 l0 224 27 50 c15 28 43 61 63 74 l35 24 305 -3 c266 -2 309 -5
337 -20z m303 -972 l145 -147 -200 -194 -200 -194 -3 105 -3 105 -87 1 c-48 1
-616 4 -1262 8 l-1175 6 -55 26 c-71 33 -125 81 -153 133 -19 36 -22 61 -25
201 l-3 160 25 -36 c31 -46 105 -95 171 -115 88 -27 477 -35 1540 -32 l1020 3
3 108 3 108 57 -50 c31 -27 122 -116 202 -196z"/>
</g>
</svg>
