<svg xmlns="http://www.w3.org/2000/svg" viewBox="0 0 500.1 499.86"><defs><style>.cls-1{fill:#e8e8e8;}</style></defs><g id="Warstwa_2" data-name="Warstwa 2"><g id="Warstwa_1-2" data-name="Warstwa 1"><path class="cls-1" d="M220.8,1.35A251.24,251.24,0,0,0,42,110.85c-56,83.4-56,194.7,0,278a262.12,262.12,0,0,0,68.8,68.9c70.1,47.1,161.1,55.3,238.9,21.5a251.9,251.9,0,0,0,129.7-129.7c48.1-110.7,10.1-240.2-90.2-307.6A251.29,251.29,0,0,0,278.1,1.35C263-.45,235.6-.45,220.8,1.35Zm42.4,116.3a34.81,34.81,0,0,1,14.9,15c1.9,3.8,2.4,6.3,2.4,13.2,0,7.3-.4,9.2-2.7,13.6-5.7,10.8-15.7,16.9-27.8,16.9-34.5,0-42.7-47.7-10.3-60C245.5,114.15,257.4,114.85,263.2,117.65Zm7.8,184.2v73H229v-146h42Z"/></g></g></svg>