<svg xmlns="http://www.w3.org/2000/svg" viewBox="0 0 499.74 499.87"><defs><style>.cls-1{fill:#e8e8e8;}</style></defs><g id="Warstwa_2" data-name="Warstwa 2"><g id="Warstwa_1-2" data-name="Warstwa 1"><path class="cls-1" d="M218.3,1.48c-94.6,12.9-173.5,76.6-204.5,165.4C4,195,0,218.88,0,249.38c-.1,30.3,3.7,53.8,12.8,80.5,13,37.8,32.3,68.8,60.5,97.1,39.3,39.3,88.3,63.5,144.8,71.3,13.1,1.9,42.9,2.1,58.3.6,43-4.4,87.5-21.9,122.7-48.2,53.6-40.2,88.1-98.1,98.3-165,3.1-20.2,3.1-51.4.1-71.3A253.17,253.17,0,0,0,473.8,139,250.18,250.18,0,0,0,278.7,1.38C262.7-.52,232.6-.42,218.3,1.48Zm-65,149.7c5.5,2.7,10.6,9.8,11.5,16.2,1.3,8.5-3.8,18-11.8,22-15.1,7.5-31.6-2.6-31.7-19.3,0-6.6,2.5-11.8,8.1-16.6C136.2,147.68,144.3,146.88,153.3,151.18Zm96,.6a21.74,21.74,0,0,1,7.7,29.4c-8.9,15-31.5,14-38.8-1.8C209.3,160.18,231,140.88,249.3,151.78Zm98.9-.9c16,8.1,15.3,32.6-1.1,39.5-5,2-13.4,1.9-18.4-.4-12.6-5.7-16.4-23.2-7.2-33.7C328.6,148.18,338.9,146.08,348.2,150.88Zm-175,48c4.3,1.2,7.7,4.3,10.4,9.5,1.9,3.7,2.1,5.7,2.1,26.7.1,21.5,0,22.9-1.9,24.7-3.3,3.3-7.7,3.7-10.8.9-2.6-2.2-2.7-2.7-3.2-16.3-1.4-33.8-3.2-32.2-3.7,3-.1,14.3-.7,26.6-1.1,27.2-.6,1-6.2,1.3-22.2,1.3-18.5,0-21.4-.2-21.9-1.6-.3-.9-.6-11.8-.6-24.2,0-23.9-.5-30.5-2.4-29.9-.7.2-1.4,6.6-1.9,18.3-.4,9.8-1.2,18.9-1.7,20.2-1.4,3.4-5.2,4.8-8.9,3.3-4.9-2.1-5.3-4.7-4.9-29.3.3-18.2.6-22.8,2-25.3,2.6-4.8,6.5-7.8,11.1-8.6C120.2,197.78,169.4,197.78,173.2,198.88Zm93.4-.1a17.34,17.34,0,0,1,12.9,11c.9,2.5,1.3,10.3,1.3,25.1,0,18.6-.2,21.9-1.7,24.2a7.17,7.17,0,0,1-9.7,2.4c-3.4-1.8-4.1-4.8-4.1-18.6,0-13.4-1.1-23.1-2.4-22.7-.7.2-1.3,9-1.7,27.1-.4,14.7-1.1,27.2-1.6,27.7s-9.7.8-22.4.7l-21.4-.3-.6-26.5c-.8-31.5-.6-29.7-1.9-28.4-.5.5-1.2,8.1-1.6,16.9-.7,19.2-1.5,22.7-5,24.4-3.3,1.5-8.9-.1-10.4-2.9-.6-1.1-1-11.2-1-23.7,0-21.6,0-22,2.6-27.1,2.7-5.5,6.3-8.7,10.4-9.5C212.6,197.78,261.6,198,266.6,198.78Zm105.4,1.4c1.8.9,4.4,3.8,5.9,6.3,2.7,4.6,2.8,5,3.2,25.9.5,24.7,0,27.8-5.3,29.5-2.7.9-4,.8-6.4-.4-1.6-.9-3.2-2.4-3.5-3.3s-.8-9.2-1.1-18.3-.9-17.4-1.2-18.5l-.6-2-.8,2c-.4,1.1-.8,12.8-.8,26s-.4,25-.7,26.2c-.6,2.3-.7,2.3-22.5,2.3-12.1,0-22-.1-22-.3s-.5-12.4-.8-27.4c-.6-25.1-1-29.7-2.8-28-.3.4-1,9.1-1.4,19.4-.8,18.8-.8,18.8-3.5,21.1-3.1,2.7-6.5,2.4-10.1-1-2.3-2.1-2.3-2.6-2.3-24.6v-22.4l2.7-5a23.43,23.43,0,0,1,6.3-7.4l3.5-2.4,30.5.3C364.9,198.38,369.2,198.68,372,200.18Zm30.3,97.2,14.5,14.7-20,19.4-20,19.4-.3-10.5-.3-10.5-8.7-.1c-4.8-.1-61.6-.4-126.2-.8l-117.5-.6-5.5-2.6c-7.1-3.3-12.5-8.1-15.3-13.3-1.9-3.6-2.2-6.1-2.5-20.1l-.3-16,2.5,3.6c3.1,4.6,10.5,9.5,17.1,11.5,8.8,2.7,47.7,3.5,154,3.2l102-.3.3-10.8.3-10.8,5.7,5C385.2,280.48,394.3,289.38,402.3,297.38Z"/></g></g></svg>