<svg xmlns="http://www.w3.org/2000/svg" viewBox="0 0 499.6 499.53"><defs><style>.cls-1{fill:#e8e8e8;}</style></defs><g id="Warstwa_2" data-name="Warstwa 2"><g id="Warstwa_1-2" data-name="Warstwa 1"><path class="cls-1" d="M228.4.21c-35.5,4.1-60.7,11.2-88.5,24.9C107.5,40.91,77.4,64.81,55.4,92A252.87,252.87,0,0,0,7,189.61c-5.5,22.4-7,35.2-7,60s1.5,37.6,7,60a250.1,250.1,0,0,0,214.2,188.5c16.3,1.9,41.2,1.9,57.6,0A250.47,250.47,0,0,0,491.9,312c5.7-21.9,7.8-38.8,7.7-62.4,0-40.5-7.8-73.9-25.7-110.5-31-63.4-87.1-110.3-155.5-130-22-6.4-38.3-8.7-64-9C242-.09,230.3,0,228.4.21Zm43.5,99.9a78.23,78.23,0,0,1,49.1,41c6.5,13.4,7.9,19.5,7.9,36,0,11.9-.4,15.1-2.3,21.5-8.2,25.8-26.5,45.1-51,53.4a77.17,77.17,0,0,1-60.5-3.8c-28.1-13.7-44.8-40.4-44.8-71.6,0-13.9,2.2-23.6,8.2-35.7C195.4,106.71,235,89.41,271.9,100.11Zm18.5,216c61.2,8.5,105.2,34.5,131.4,77.6,2.5,4.2,4.6,8.1,4.6,8.7,0,1.5-16.2,16.5-26.4,24.5-30.5,23.7-67.1,41.9-100.7,50.1-24.9,6-54,7.6-78,4.2-50.9-7.2-99-31.1-140.1-69.6l-8.8-8.1,2.7-5.2c8.8-17.7,30-41.1,47.2-52.5,26.9-17.7,60.8-28.1,102.6-31.6C236.1,313.31,279.3,314.51,290.4,316.11Z"/></g></g></svg>