<svg id="Warstwa_1" data-name="Warstwa 1" xmlns="http://www.w3.org/2000/svg" viewBox="0 0 90 90"><defs><style>.cls-1{fill:#e8e8e8;}</style></defs><path class="cls-1" d="M45,7A38,38,0,1,1,7,45,38,38,0,0,1,45,7m0-7A45,45,0,1,0,90,45,45,45,0,0,0,45,0Z"/><path class="cls-1" d="M22.63,47.44c2.18,5.28,10.74,14.32,16.15,16.18a9,9,0,0,0,5,0A3,3,0,0,0,45,62.37a8.74,8.74,0,0,0,0-4.89c-1.33-2.79-8.72-8.76-8.72-8.76S59,51.14,66,48.72a3.25,3.25,0,0,0,1.32-1.28,8.76,8.76,0,0,0,0-4.92A3.11,3.11,0,0,0,66,41.2c-6.86-2.84-29.73,0-29.73,0s7.36-5.84,8.69-8.59a8.83,8.83,0,0,0,0-5,3.18,3.18,0,0,0-1.29-1.28,8.64,8.64,0,0,0-4.86,0c-5.4,1.9-13.69,11-16.21,16.18A8.18,8.18,0,0,0,22.63,47.44Z"/></svg>