<svg id="Warstwa_1" data-name="Warstwa 1" xmlns="http://www.w3.org/2000/svg" viewBox="0 0 79.5 79.16"><defs><style>.cls-1{fill:#e8e8e8;}</style></defs><path class="cls-1" d="M38,9.3a40.26,40.26,0,0,0-15.3,7.8c-3.8,3.1-4.6,5.6-2.5,7.7,1.9,1.9,3.3,1.5,9.3-2.7A32,32,0,0,1,77,34.5c2,4.1,2.4,6.5,2.4,13.5,0,10-2.4,16-8.9,22.5-6.3,6.4-12.5,8.9-22,8.9-8.9.1-12.6-1-19.8-6.1-5.1-3.6-6.6-4-8.5-2.1-3.3,3.3.9,8,11.8,13.2,5.8,2.8,7.5,3.1,16,3.1s10.1-.3,16.2-3.2c9.3-4.4,15.1-10,19.6-19.1,3.5-7.2,3.7-8.1,3.7-17.2s-.2-10-3.7-17.2C77,17.2,65,9.2,50.2,8.4,45.6,8.2,40.7,8.5,38,9.3Z" transform="translate(-8 -8.34)"/><path class="cls-1" d="M15.2,39.3C11.3,43.3,8,47.2,8,48c0,2,14.1,16,16.1,16A4.21,4.21,0,0,0,28,60c0-.9-1.4-2.9-3.1-4.6l-3-2.9L41.1,52c16.9-.4,19.3-.7,20.3-2.2a2.85,2.85,0,0,0,0-3.5c-1-1.6-3.4-1.9-20.3-2.3l-19.2-.5,3-2.9c3.3-3.2,3.9-5.4,1.9-7.4C24.5,30.9,22.4,32,15.2,39.3Z" transform="translate(-8 -8.34)"/></svg>